<?xml version="1.0" encoding="UTF-8"?>
<svg width="1920" height="1080" viewBox="0 0 1920 1080" xmlns="http://www.w3.org/2000/svg">
    <defs>
        <linearGradient id="sky" x1="0%" y1="0%" x2="0%" y2="100%">
            <stop offset="0%" style="stop-color:#1a365d;stop-opacity:1" />
            <stop offset="100%" style="stop-color:#2a4365;stop-opacity:1" />
        </linearGradient>
    </defs>
    <rect width="100%" height="100%" fill="url(#sky)"/>
    <!-- City buildings -->
    <g fill="#1a365d" opacity="0.3">
        <rect x="100" y="400" width="200" height="680"/>
        <rect x="350" y="300" width="150" height="780"/>
        <rect x="550" y="500" width="180" height="580"/>
        <rect x="780" y="350" width="220" height="730"/>
        <rect x="1050" y="450" width="160" height="630"/>
        <rect x="1250" y="400" width="190" height="680"/>
        <rect x="1500" y="300" width="170" height="780"/>
        <rect x="1700" y="450" width="150" height="630"/>
    </g>
    <!-- Windows -->
    <g fill="#ffffff" opacity="0.1">
        <!-- Building 1 windows -->
        <rect x="120" y="420" width="30" height="30"/>
        <rect x="170" y="420" width="30" height="30"/>
        <rect x="120" y="470" width="30" height="30"/>
        <rect x="170" y="470" width="30" height="30"/>
        <!-- Building 2 windows -->
        <rect x="370" y="320" width="30" height="30"/>
        <rect x="420" y="320" width="30" height="30"/>
        <rect x="370" y="370" width="30" height="30"/>
        <rect x="420" y="370" width="30" height="30"/>
        <!-- Building 3 windows -->
        <rect x="570" y="520" width="30" height="30"/>
        <rect x="620" y="520" width="30" height="30"/>
        <rect x="570" y="570" width="30" height="30"/>
        <rect x="620" y="570" width="30" height="30"/>
        <!-- Building 4 windows -->
        <rect x="800" y="370" width="30" height="30"/>
        <rect x="850" y="370" width="30" height="30"/>
        <rect x="900" y="370" width="30" height="30"/>
        <rect x="800" y="420" width="30" height="30"/>
        <rect x="850" y="420" width="30" height="30"/>
        <rect x="900" y="420" width="30" height="30"/>
        <!-- Building 5 windows -->
        <rect x="1070" y="470" width="30" height="30"/>
        <rect x="1120" y="470" width="30" height="30"/>
        <rect x="1170" y="470" width="30" height="30"/>
        <rect x="1070" y="520" width="30" height="30"/>
        <rect x="1120" y="520" width="30" height="30"/>
        <rect x="1170" y="520" width="30" height="30"/>
        <!-- Building 6 windows -->
        <rect x="1270" y="420" width="30" height="30"/>
        <rect x="1320" y="420" width="30" height="30"/>
        <rect x="1370" y="420" width="30" height="30"/>
        <rect x="1270" y="470" width="30" height="30"/>
        <rect x="1320" y="470" width="30" height="30"/>
        <rect x="1370" y="470" width="30" height="30"/>
        <!-- Building 7 windows -->
        <rect x="1520" y="320" width="30" height="30"/>
        <rect x="1570" y="320" width="30" height="30"/>
        <rect x="1620" y="320" width="30" height="30"/>
        <rect x="1520" y="370" width="30" height="30"/>
        <rect x="1570" y="370" width="30" height="30"/>
        <rect x="1620" y="370" width="30" height="30"/>
        <!-- Building 8 windows -->
        <rect x="1720" y="470" width="30" height="30"/>
        <rect x="1770" y="470" width="30" height="30"/>
        <rect x="1720" y="520" width="30" height="30"/>
        <rect x="1770" y="520" width="30" height="30"/>
    </g>
</svg> 