<?xml version="1.0" encoding="UTF-8"?>
<svg width="600" height="400" viewBox="0 0 600 400" xmlns="http://www.w3.org/2000/svg">
    <!-- Background Elements -->
    <defs>
        <linearGradient id="grad1" x1="0%" y1="0%" x2="100%" y2="100%">
            <stop offset="0%" style="stop-color:#ffffff;stop-opacity:0.1" />
            <stop offset="100%" style="stop-color:#ffffff;stop-opacity:0.05" />
        </linearGradient>
    </defs>
    
    <!-- Decorative Circles -->
    <circle cx="100" cy="100" r="50" fill="url(#grad1)" opacity="0.5"/>
    <circle cx="500" cy="300" r="70" fill="url(#grad1)" opacity="0.5"/>
    
    <!-- Main Building -->
    <rect x="200" y="100" width="200" height="250" fill="#ffffff" opacity="0.9"/>
    <rect x="220" y="120" width="160" height="210" fill="#003366" opacity="0.1"/>
    
    <!-- Windows -->
    <g fill="#ffffff" opacity="0.8">
        <rect x="240" y="140" width="30" height="30"/>
        <rect x="290" y="140" width="30" height="30"/>
        <rect x="340" y="140" width="30" height="30"/>
        <rect x="240" y="190" width="30" height="30"/>
        <rect x="290" y="190" width="30" height="30"/>
        <rect x="340" y="190" width="30" height="30"/>
        <rect x="240" y="240" width="30" height="30"/>
        <rect x="290" y="240" width="30" height="30"/>
        <rect x="340" y="240" width="30" height="30"/>
    </g>
    
    <!-- Door -->
    <rect x="280" y="290" width="40" height="60" fill="#ffffff" opacity="0.8"/>
    
    <!-- Steps -->
    <rect x="270" y="350" width="60" height="10" fill="#ffffff" opacity="0.6"/>
    <rect x="260" y="360" width="80" height="10" fill="#ffffff" opacity="0.4"/>
    
    <!-- Decorative Elements -->
    <circle cx="300" cy="320" r="5" fill="#ffcc00"/>
    <circle cx="300" cy="320" r="10" fill="#ffcc00" opacity="0.3"/>
    
    <!-- People -->
    <g transform="translate(150, 350)">
        <circle cx="0" cy="0" r="15" fill="#ffffff"/>
        <rect x="-5" y="15" width="10" height="20" fill="#ffffff"/>
    </g>
    <g transform="translate(450, 350)">
        <circle cx="0" cy="0" r="15" fill="#ffffff"/>
        <rect x="-5" y="15" width="10" height="20" fill="#ffffff"/>
    </g>
</svg> 